<svg width="89" height="24" viewBox="0 0 89 24" fill="none" xmlns="http://www.w3.org/2000/svg">
<path d="M34.1166 11.1687C34.9405 11.1687 35.6036 11.1432 36.1057 11.0923C36.6078 11.0413 36.994 10.9394 37.2644 10.7866C37.5476 10.6209 37.7472 10.3853 37.863 10.0795C37.9789 9.77381 38.069 9.3598 38.1334 8.8375H38.8479V14.4362H38.1334C38.0562 13.9267 37.9532 13.519 37.8244 13.2133C37.6957 12.9076 37.4897 12.6783 37.2064 12.5254C36.9232 12.3598 36.537 12.2579 36.0477 12.2197C35.5714 12.1687 34.9277 12.1432 34.1166 12.1432V16.0796C34.1166 16.4872 34.1681 16.8311 34.2711 17.1114C34.3869 17.3917 34.5736 17.621 34.8311 17.7993C35.0886 17.9649 35.4298 18.0859 35.8546 18.1624C36.2795 18.2261 36.8009 18.2579 37.4189 18.2579C38.1527 18.2579 38.7707 18.2069 39.2728 18.105C39.7878 18.0031 40.2126 17.8248 40.5474 17.57C40.8821 17.3152 41.1525 16.9776 41.3585 16.5573C41.5645 16.1241 41.7383 15.5827 41.8799 14.9331H42.6523L42.3434 19.3089H29.25V18.5445C29.6749 18.5318 30.0225 18.4936 30.2928 18.4299C30.5632 18.3662 30.7692 18.2579 30.9108 18.105C31.0524 17.9522 31.149 17.7356 31.2005 17.4554C31.252 17.1751 31.2777 16.812 31.2777 16.3662V7.53814C31.2777 7.09228 31.252 6.73559 31.2005 6.46807C31.1619 6.18782 31.0782 5.97126 30.9494 5.81839C30.8207 5.65279 30.634 5.5445 30.3894 5.49355C30.1577 5.42985 29.8487 5.38527 29.4624 5.35979V4.59546H41.6674L41.8026 8.34069H40.9722C40.895 7.80565 40.7727 7.36616 40.6053 7.02222C40.4379 6.66553 40.2062 6.38527 39.9101 6.18145C39.614 5.96489 39.2277 5.81839 38.7514 5.74196C38.2879 5.65279 37.715 5.6082 37.0326 5.6082H34.8504C34.5157 5.6082 34.3097 5.65279 34.2324 5.74196C34.1552 5.81839 34.1166 6.00947 34.1166 6.31521V11.1687Z" fill="#E3AA79"/>
<path d="M47.8022 16.1751C47.8022 16.6847 47.8216 17.0923 47.8602 17.398C47.8988 17.7038 47.9761 17.9394 48.0919 18.105C48.2078 18.2706 48.3752 18.3853 48.594 18.449C48.8129 18.4999 49.3954 18.5318 49.7687 18.5445V19.3089H43.3992V18.5445C43.7597 18.5318 44.0493 18.4936 44.2682 18.4299C44.4999 18.3534 44.6737 18.2388 44.7896 18.0859C44.9184 17.9203 45.002 17.6974 45.0407 17.4171C45.0922 17.1241 45.1179 16.7547 45.1179 16.3089V13.9585C45.1179 13.2197 45.105 12.6146 45.0793 12.1432C45.0535 11.6592 45.0214 11.328 44.9827 11.1496C44.9184 10.8311 44.7703 10.6209 44.5386 10.519C44.3197 10.4171 43.9141 10.3662 43.3219 10.3662V9.03816L47.8022 8.99037V16.1751Z" fill="#E3AA79"/>
<path d="M54.7801 16.1942C54.7801 16.7165 54.793 17.1305 54.8187 17.4362C54.8574 17.7292 54.9282 17.9585 55.0312 18.1241C55.147 18.277 55.3144 18.3789 55.5333 18.4299C55.765 18.4808 56.074 18.519 56.4602 18.5445V19.3089H49.7687V18.5445C50.1421 18.519 51.0465 18.4808 51.2654 18.4299C51.4971 18.3789 51.6709 18.277 51.7868 18.1241C51.9155 17.9713 51.9992 17.7547 52.0379 17.4745C52.0765 17.1942 52.0958 16.812 52.0958 16.328V13.9394C52.0958 13.1878 52.0829 12.5827 52.0572 12.1241C52.0314 11.6528 51.9992 11.3343 51.9606 11.1687C51.922 11.0031 51.8705 10.8694 51.8061 10.7674C51.7417 10.6528 51.6452 10.57 51.5164 10.519C51.3877 10.4553 51.2268 10.4171 51.0336 10.4044C50.8405 10.3789 50.5959 10.3662 50.2998 10.3662V9.03816L54.278 9.05693V10.6719H54.3553C54.7801 10.1369 55.2822 9.72286 55.8616 9.42986C56.4409 9.13687 57.0782 8.99037 57.7734 8.99037C58.5974 8.99037 59.2604 9.10502 59.7626 9.33432C60.2775 9.55088 60.7346 9.92031 61.1337 10.4426C61.3526 10.7356 61.5457 11.1178 61.713 11.5891C61.8804 12.0477 61.9641 12.6846 61.9641 13.4999V16.1942C61.9641 16.7165 61.977 17.1305 62.0027 17.4362C62.0413 17.7292 62.1121 17.9585 62.2151 18.1241C62.331 18.277 62.4984 18.3789 62.7173 18.4299C62.9361 18.4808 63.2322 18.519 63.6056 18.5445V19.3089H57.561V18.5445C57.9472 18.5318 58.2498 18.4999 58.4687 18.449C58.7004 18.3853 58.8742 18.277 58.9901 18.1241C59.106 17.9713 59.1832 17.7547 59.2218 17.4745C59.2604 17.1815 59.2798 16.7993 59.2798 16.328V13.7292C59.2798 13.0795 59.2411 12.5318 59.1639 12.0859C59.0866 11.6401 58.9579 11.2834 58.7777 11.0159C58.6103 10.7356 58.385 10.5381 58.1017 10.4235C57.8185 10.2961 57.4645 10.2324 57.0396 10.2324C56.6276 10.2324 56.2736 10.3471 55.9775 10.5764C55.6813 10.8057 55.4238 11.1241 55.205 11.5318C55.0891 11.7611 54.9861 12.0604 54.896 12.4299C54.8187 12.7866 54.7801 13.1624 54.7801 13.5573V16.1942Z" fill="#E3AA79"/>
<path d="M65.0069 19.3089H64.4082V15.8311H65.2193C65.4382 16.7483 65.7536 17.4171 66.1656 17.8375C66.5776 18.2579 67.1119 18.4681 67.7685 18.4681C68.2448 18.4681 68.6118 18.3725 68.8692 18.1815C69.1396 17.9776 69.2748 17.7038 69.2748 17.3598C69.2748 17.0031 69.1139 16.6592 68.792 16.328C68.4701 15.984 67.9487 15.621 67.2277 15.2388C66.2493 14.7165 65.5476 14.2006 65.1228 13.691C64.6979 13.1687 64.4855 12.5827 64.4855 11.9331C64.4855 11.5127 64.5627 11.1241 64.7172 10.7674C64.8846 10.398 65.1035 10.0795 65.3738 9.81203C65.6571 9.54451 65.9918 9.34069 66.378 9.20056C66.7643 9.04769 67.1827 8.97126 67.6333 8.97126C68.0324 8.97126 68.4251 9.02859 68.8113 9.14324C69.2104 9.25789 69.558 9.41712 69.8541 9.62094L70.2018 9.16234H70.7039V12.0477H69.9507C69.6546 11.3216 69.3456 10.7993 69.0237 10.4808C68.7148 10.1623 68.335 10.0031 67.8843 10.0031C67.5239 10.0031 67.2342 10.0987 67.0153 10.2897C66.8093 10.4808 66.7063 10.7356 66.7063 11.0541C66.7063 11.4108 66.8608 11.7483 67.1698 12.0668C67.4917 12.3853 68.0195 12.7356 68.7534 13.1178C69.2684 13.398 69.7125 13.6719 70.0859 13.9394C70.4592 14.2069 70.7618 14.4808 70.9935 14.7611C71.2253 15.0286 71.3927 15.3152 71.4956 15.621C71.6115 15.9139 71.6694 16.2324 71.6694 16.5764C71.6694 17.0222 71.5858 17.4235 71.4184 17.7802C71.251 18.1369 71.0128 18.4426 70.7039 18.6974C70.3949 18.9522 70.0215 19.1496 69.5838 19.2897C69.1589 19.4299 68.6826 19.4999 68.1547 19.4999C67.6011 19.4999 67.0861 19.4299 66.6098 19.2897C66.1334 19.1369 65.7407 18.9203 65.4318 18.6401L65.0069 19.3089Z" fill="#E3AA79"/>
<path d="M76.3587 16.1751C76.3587 16.6847 76.378 17.0923 76.4167 17.398C76.4553 17.7038 76.5325 17.9394 76.6484 18.105C76.7643 18.2706 76.9316 18.3853 77.1505 18.449C77.3694 18.4999 77.6655 18.5318 78.0389 18.5445V19.3089H71.9557V18.5445C72.3161 18.5318 72.6058 18.4936 72.8247 18.4299C73.0564 18.3534 73.2302 18.2388 73.3461 18.0859C73.4748 17.9203 73.5585 17.6974 73.5972 17.4171C73.6487 17.1241 73.6744 16.7547 73.6744 16.3089V13.9585C73.6744 13.2197 73.6615 12.6146 73.6358 12.1432C73.61 11.6592 73.5778 11.328 73.5392 11.1496C73.4748 10.8311 73.3268 10.6209 73.0951 10.519C72.8762 10.4171 72.4706 10.3662 71.8784 10.3662V8.99037H76.3587V16.1751Z" fill="#E3AA79"/>
<path d="M85.0167 13.863C83.9353 14.3471 83.1177 14.7993 82.5641 15.2197C82.0234 15.6273 81.753 16.0541 81.753 16.4999C81.753 16.8694 81.856 17.1624 82.062 17.3789C82.268 17.5955 82.5255 17.7038 82.8345 17.7038C83.1435 17.7038 83.4332 17.6528 83.7035 17.5509C83.9739 17.4362 84.2056 17.2897 84.3988 17.1114C84.5919 16.9331 84.7399 16.7229 84.8429 16.4808C84.9588 16.2261 85.0167 15.9585 85.0167 15.6783V13.863ZM85.0167 12.8503V12.0477C85.0167 11.3088 84.8815 10.7738 84.6112 10.4426C84.3537 10.0987 83.9481 9.92668 83.3945 9.92668C83.0212 9.92668 82.7379 10.0286 82.5448 10.2324C82.3517 10.4235 82.1715 10.7483 82.0041 11.2069C81.8882 11.5254 81.7209 11.7738 81.502 11.9522C81.296 12.1305 81.0063 12.2197 80.633 12.2197C80.2725 12.2197 79.9957 12.1114 79.8026 11.8948C79.6094 11.6783 79.5129 11.3725 79.5129 10.9776C79.5129 10.3662 79.8476 9.88209 80.5171 9.5254C81.1994 9.16872 82.223 8.99037 83.5877 8.99037C85.0296 8.99037 86.0596 9.25152 86.6775 9.77381C87.2955 10.2834 87.6045 11.1432 87.6045 12.3534V16.5382C87.6045 17.621 87.8234 18.1624 88.2611 18.1624C88.5057 18.1624 88.6562 18.1624 88.875 18.1624V18.8312C88.7806 18.9649 88.7632 19.0413 88.377 19.2324C88.0036 19.4108 87.5788 19.4999 87.1024 19.4999C86.5102 19.4999 86.0596 19.3216 85.7506 18.9649C85.4416 18.6082 85.2871 18.105 85.2871 17.4554H85.1905C84.8172 18.1178 84.3344 18.621 83.7422 18.9649C83.1499 19.3089 82.474 19.4808 81.7144 19.4808C80.9033 19.4808 80.2532 19.2579 79.7639 18.812C79.2747 18.3534 79.0301 17.7611 79.0301 17.035C79.0301 16.4745 79.2811 15.9522 79.7832 15.4681C80.2854 14.9713 81.1222 14.4872 82.2938 14.0159L85.0167 12.8503Z" fill="#E3AA79"/>
<path d="M12 0C18.6274 0 24 5.37258 24 12C24 14.8675 22.9924 17.4984 21.3145 19.5625L14.8779 12.9307L20.9814 10.8125L19.8154 7.45312L15.0889 9.09277L16.8701 4.41797L13.5469 3.15234L11.2471 9.18945L6.7334 4.54004L4.31152 6.89062L8.62695 11.3369L3.1582 13.2363L4.32422 16.5957L9.05078 14.9531L7.27051 19.6299L10.5928 20.8965L12.6533 15.4844L18.8389 21.8574C16.8983 23.2063 14.5424 24 12 24C5.37269 23.9999 0 18.6273 0 12C0 5.37266 5.37269 0.000131941 12 0Z" fill="#E3AA79"/>
<circle cx="46" cy="7" r="1" fill="#E3AA79"/>
<circle cx="75" cy="7" r="1" fill="#E3AA79"/>
</svg>
